# Alias OBJ Model File
# Exported from SketchUp, (c) 2000-2012 Trimble Navigation Limited
# File units = meters

mtllib vypinacOff.mtl

g Mesh1 VypinacOff Model

usemtl _
v 4.07153 0.86 -6.60568
vt 0 0
vn 1 0 -0
v 4.07153 0.86 -7.05568
vt 1.96676 0
v 4.07153 1.41 -7.05568
vt 1.96676 1.80446
v 4.07153 1.41 -6.60568
vt 0 1.80446
f 1/1/1 2/2/1 3/3/1 4/4/1 

vn -1 -0 0
f 4/4/2 3/3/2 2/2/2 1/1/2 

vt 8.4789 0
vn 0 1 -0
vt 8.4789 1.47638
v 2.13153 1.41 -7.05568
vt 0 1.47638
v 2.13153 1.41 -6.60568
f 4/5/3 3/6/3 5/7/3 6/1/3 

vn -0 -1 0
f 6/1/4 5/7/4 3/6/4 4/5/4 

v 2.13153 0.86 -7.05568
vt -1.96676 0
vn -1 0 -0
v 2.13153 0.86 -6.60568
vt -1.96676 1.80446
f 7/8/5 8/1/5 6/4/5 5/9/5 

vt -8.4789 1.47638
vn 0 -1 -0
vt -8.4789 0
f 2/10/6 1/11/6 8/1/6 7/7/6 

vn -0 1 0
f 7/7/7 8/1/7 1/11/7 2/10/7 

vn 1 -0 0
f 5/9/8 6/4/8 8/1/8 7/8/8 

vn 0 0 1
vt 8.4789 1.80446
f 8/1/9 1/5/9 4/12/9 6/4/9 

vn -0 -0 -1
f 6/4/10 4/12/10 1/5/10 8/1/10 

vn 0 0 -1
vt -8.4789 1.80446
f 2/11/11 7/1/11 5/4/11 3/13/11 

vn -0 -0 1
f 3/13/12 5/4/12 7/1/12 2/11/12 

