# Alias OBJ Model File
# Exported from SketchUp, (c) 2000-2012 Trimble Navigation Limited
# File units = meters

mtllib Walls3.mtl

g Mesh1 Walls3_1 Model

usemtl FrontColor
v 6.81 0 -5.61
vt -3.14961 59.0551
vn 0 -1 -0
v 6.73 0 -5.42
vt 0 51.5748
v 6.73 0 -5.61
vt 0 59.0551
f 1/1/1 2/2/1 3/3/1

v 6.81 0 -5.42
vt -3.14961 51.5748
f 2/2/1 1/1/1 4/4/1

usemtl BackColor
vn -0 1 0
f 3/3/2 2/2/2 1/1/2

f 4/4/2 1/1/2 2/2/2

usemtl FrontColor
vt -51.5748 0
vn -1 0 -0
v 6.81 2 -5.71
vt -62.9921 78.7402
vt -59.0551 0
f 4/5/3 5/6/3 1/7/3

v 6.81 2 -5.42
vt -51.5748 78.7402
f 5/6/3 4/5/3 6/8/3

usemtl BackColor
vn 1 -0 0
f 6/8/4 4/5/4 5/6/4

usemtl FrontColor
vt -3.14961 0
vn 4.51195e-14 0 -1
v 6.63 2 -5.42
vt 3.93701 78.7402
vt -3.14961 78.7402
f 4/9/5 7/10/5 6/11/5

vt 2.32703e-12 0
f 2/12/5 7/10/5 4/9/5

v 6.63 0 -5.42
vt 3.93701 0
f 7/10/5 2/12/5 8/13/5

usemtl BackColor
vn -4.51195e-14 -0 1
f 8/13/6 2/12/6 7/10/6

usemtl FrontColor
v 6.63 0 -4.58
vt 3.93701 18.5039
vt 3.93701 51.5748
f 2/2/1 9/14/1 8/15/1

v 6.73 0 -4.58
vt 0 18.5039
f 9/14/1 2/2/1 10/16/1

usemtl BackColor
f 8/15/2 9/14/2 2/2/2

usemtl FrontColor
vt -18.5039 0
f 9/17/3 7/8/3 8/5/3

v 6.63 2 -4.58
vt -18.5039 78.7402
f 7/8/3 9/17/3 11/18/3

usemtl BackColor
f 11/18/4 9/17/4 7/8/4

usemtl FrontColor
vt -3.93701 0
vn -5.41434e-14 0 1
v 6.81 2 -4.58
vt 3.14961 78.7402
vt -3.93701 78.7402
f 9/19/7 12/20/7 11/21/7

vt -1.00187e-12 0
f 10/22/7 12/20/7 9/19/7

v 6.81 0 -4.58
vt 3.14961 0
f 12/20/7 10/22/7 13/23/7

usemtl BackColor
vn 5.41434e-14 -0 -1
f 13/23/8 10/22/8 12/20/8

f 9/19/8 12/20/8 10/22/8

f 11/21/8 12/20/8 9/19/8

usemtl FrontColor
vt 3.14961 18.5039
vn 0 1 -0
vt -3.93701 51.5748
vt -3.93701 18.5039
f 12/24/9 7/25/9 11/26/9

vt 3.14961 51.5748
f 7/25/9 12/24/9 6/27/9

usemtl BackColor
vn -0 -1 0
f 11/26/10 7/25/10 12/24/10

f 6/27/10 12/24/10 7/25/10

usemtl FrontColor
v 8.51085 2 -4.01
vt 70.112 -3.93701
f 12/24/9 14/28/9 6/27/9

v 6.81 2 -4.01
vt 3.14961 -3.93701
f 14/28/9 12/24/9 15/29/9

usemtl BackColor
f 15/29/10 12/24/10 14/28/10

usemtl FrontColor
v 6.81 0 -4.01
f 12/18/3 16/13/3 15/10/3

f 16/13/3 12/18/3 13/17/3

usemtl BackColor
f 15/10/4 16/13/4 12/18/4

usemtl FrontColor
vn 9.01913e-16 0 1
vt 70.112 78.7402
f 16/23/11 14/30/11 15/20/11

v 8.51085 0 -4.01
vt 70.112 0
f 14/30/11 16/23/11 17/31/11

usemtl BackColor
vn -9.01913e-16 -0 -1
f 17/31/12 16/23/12 14/30/12

f 15/20/12 14/30/12 16/23/12

usemtl FrontColor
v 8.51085 0 -5.61
vt 59.0551 0
vn 1 0 -0
f 18/32/13 14/21/13 17/19/13

v 8.51085 2 -5.71
vt 62.9921 78.7402
f 14/21/13 18/32/13 19/33/13

usemtl BackColor
vn -1 -0 0
f 17/19/14 14/21/14 18/32/14

f 19/33/14 18/32/14 14/21/14

usemtl FrontColor
v 8.51085 0 -5.71
vt 62.9921 0
f 19/33/13 18/32/13 20/34/13

usemtl BackColor
f 20/34/14 18/32/14 19/33/14

usemtl FrontColor
vt -70.112 62.9921
vt -70.112 59.0551
f 1/1/1 20/35/1 18/36/1

v 6.81 0 -5.71
vt -3.14961 62.9921
f 20/35/1 1/1/1 21/37/1

usemtl BackColor
f 21/37/2 1/1/2 20/35/2

usemtl FrontColor
vt -62.9921 0
f 1/7/3 5/6/3 21/38/3

usemtl BackColor
f 1/7/4 5/6/4 4/5/4

f 21/38/4 5/6/4 1/7/4

usemtl FrontColor
vn -4.50956e-16 0 -1
vt -70.112 0
f 5/11/15 20/39/15 21/9/15

vt -70.112 78.7402
f 20/39/15 5/11/15 19/40/15

usemtl BackColor
vn 4.50956e-16 -0 1
f 21/9/16 20/39/16 5/11/16

f 19/40/16 5/11/16 20/39/16

usemtl FrontColor
vt 3.14961 62.9921
vt 70.112 62.9921
f 5/41/9 14/28/9 19/42/9

f 6/27/9 14/28/9 5/41/9

usemtl BackColor
f 6/27/10 14/28/10 12/24/10

f 5/41/10 14/28/10 6/27/10

f 19/42/10 14/28/10 5/41/10

f 18/36/2 20/35/2 1/1/2

f 13/17/4 12/18/4 16/13/4

f 6/11/6 7/10/6 4/9/6

f 4/9/6 7/10/6 2/12/6

f 10/16/2 2/2/2 9/14/2

f 8/5/4 7/8/4 9/17/4

