# Alias OBJ Model File
# Exported from SketchUp, (c) 2000-2012 Trimble Navigation Limited
# File units = meters

mtllib Walls1.mtl

g Mesh1 Wall1_1 Model

usemtl FrontColor
v 11.3046 2 -7.43
vt -211.205 9.87308
vn 0 -1 -0
v 5.94 2 -7.08
vt -1.98952e-13 -3.90644
v 5.94 2 -7.43
vt 0 9.87308
f 1/1/1 2/2/1 3/3/1

v 8.55997 2 -7.08
vt -103.148 -3.90644
f 2/2/1 1/1/1 4/4/1

usemtl BackColor
vn -0 1 0
f 3/3/2 2/2/2 1/1/2

usemtl FrontColor
vt -3.90644 78.7402
vn 1 0 -3.36892e-14
v 5.94 0 -7.18
vt 0.0305633 0
vt 9.87308 78.7402
f 2/5/3 5/6/3 3/7/3

v 5.94 0 -7.08
vt -3.90644 0
f 5/6/3 2/5/3 6/8/3

usemtl BackColor
vn -1 -0 3.36892e-14
f 6/8/4 2/5/4 5/6/4

usemtl FrontColor
vt -2.03258e-13 78.7402
vn 1.10217e-15 0 -1
v 8.55997 0 -7.08
vt -103.148 0
vt -2.03258e-13 0
f 2/9/5 7/10/5 6/11/5

vt -103.148 78.7402
f 7/10/5 2/9/5 4/12/5

usemtl BackColor
vn -1.10217e-15 -0 1
f 6/11/6 7/10/6 2/9/6

usemtl FrontColor
vt 103.148 -3.90644
vn 0 1 -0
vt 1.98952e-13 0.0305633
vt 1.98952e-13 -3.90644
f 7/13/7 5/14/7 6/15/7

v 8.55997 0 -7.18
vt 103.148 0.0305633
f 5/14/7 7/13/7 8/16/7

usemtl BackColor
vn -0 -1 0
f 6/15/8 5/14/8 7/13/8

f 8/16/8 7/13/8 5/14/8

usemtl FrontColor
v 11.03 0 -7.08
vt 200.394 -3.90644
f 9/17/7 8/16/7 7/13/7

v 11.03 0 -7.18
vt 200.394 0.0305633
f 8/16/7 9/17/7 10/18/7

usemtl BackColor
f 7/13/8 8/16/8 9/17/8

f 10/18/8 9/17/8 8/16/8

usemtl FrontColor
v 11.3046 0 -7.08
vt 211.205 -3.90644
f 11/19/7 10/18/7 9/17/7

v 11.3046 0 -7.18
vt 211.205 0.0305633
f 10/18/7 11/19/7 12/20/7

usemtl BackColor
f 9/17/8 10/18/8 11/19/8

f 12/20/8 11/19/8 10/18/8

usemtl FrontColor
vt 3.90644 0
vn -1 0 -0
vt -9.87308 78.7402
vt -0.0305633 0
f 11/21/9 1/22/9 12/23/9

v 11.3046 2 -7.08
vt 3.90644 78.7402
f 1/22/9 11/21/9 13/24/9

usemtl BackColor
vn 1 -0 0
f 13/24/10 11/21/10 1/22/10

usemtl FrontColor
vt -211.205 0
vn 0 0 -1
v 11.03 2 -7.08
vt -200.394 78.7402
vt -211.205 78.7402
f 11/25/11 14/26/11 13/27/11

vt -200.394 0
f 14/26/11 11/25/11 9/28/11

usemtl BackColor
vn -0 -0 1
f 9/28/12 11/25/12 14/26/12

f 13/27/12 14/26/12 11/25/12

usemtl FrontColor
vt -200.394 -3.90644
vt -211.205 -3.90644
f 14/29/1 1/1/1 13/30/1

f 4/4/1 1/1/1 14/29/1

usemtl BackColor
f 4/4/2 1/1/2 2/2/2

f 14/29/2 1/1/2 4/4/2

f 13/30/2 1/1/2 14/29/2

usemtl FrontColor
vn -5.84536e-16 0 -1
f 9/28/13 4/12/13 14/26/13

f 4/12/13 9/28/13 7/10/13

usemtl BackColor
vn 5.84536e-16 -0 1
f 7/10/14 9/28/14 4/12/14

f 14/26/14 4/12/14 9/28/14

f 4/12/6 2/9/6 7/10/6

f 12/23/10 1/22/10 11/21/10

usemtl FrontColor
v 11.3046 0 -7.43
vt -9.87308 0
f 12/23/9 1/22/9 15/31/9

usemtl BackColor
f 15/31/10 1/22/10 12/23/10

usemtl FrontColor
vt 211.205 78.7402
vn 2.69138e-16 0 1
v 5.94 0 -7.43
vt 2.65722e-15 0
vt 211.205 0
f 1/32/15 16/33/15 15/34/15

vt 2.65722e-15 78.7402
f 16/33/15 1/32/15 3/35/15

usemtl BackColor
vn -2.69138e-16 -0 -1
f 15/34/16 16/33/16 1/32/16

f 3/35/16 1/32/16 16/33/16

usemtl FrontColor
vt 9.87308 0
f 3/7/3 5/6/3 16/36/3

usemtl BackColor
f 3/7/4 5/6/4 2/5/4

f 16/36/4 5/6/4 3/7/4

