# Alias OBJ Model File
# Exported from SketchUp, (c) 2000-2012 Trimble Navigation Limited
# File units = meters

mtllib Komoda.mtl

g Mesh1 Komoda Model

usemtl _auto_3
v 4.07153 0 -7.05568
vt -4.89433 0
vn 1 0 -0
v 4.07153 0.86 -7.05568
vt -4.89433 33.8583
v 4.07153 0.86 -6.60568
vt -22.6109 33.8583
v 4.07153 0 -6.60568
vt -22.6109 0
f 1/1/1 2/2/1 3/3/1 4/4/1 

v 2.13153 0 -7.05568
vt 103.089 0
vn 0 0 -1
v 2.13153 0.86 -7.05568
vt 103.089 33.8583
vt 26.7114 33.8583
vt 26.7114 0
f 5/5/2 6/6/2 2/7/2 1/8/2 

v 2.13153 0 -6.60568
vt 22.6109 0
vn -1 0 -0
v 2.13153 0.86 -6.60568
vt 22.6109 33.8583
vt 4.89433 33.8583
vt 4.89433 0
f 7/9/3 8/10/3 6/11/3 5/12/3 

vt -26.7114 0
vn 0 0 1
vt -26.7114 33.8583
vt -103.089 33.8583
vt -103.089 0
f 4/13/4 3/14/4 8/15/4 7/16/4 

vt -103.089 -22.6109
vn 0 1 -0
vt -26.7114 -22.6109
vt -26.7114 -4.89433
vt -103.089 -4.89433
f 8/17/5 3/18/5 2/19/5 6/20/5 

vt 26.7114 -4.89433
vn 0 -1 -0
vt 26.7114 -22.6109
vt 103.089 -22.6109
vt 103.089 -4.89433
f 1/21/6 4/22/6 7/23/6 5/24/6 

